<svg xmlns="http://www.w3.org/2000/svg" width="237.2" height="41.3" viewBox="-281.4 376.4 237.2 41.3" enable-background="new -281.4 376.4 237.2 41.3"><style>.st0{filter:url(#filtermask)}.st2{mask:url(#b)}</style><title>masterpass-hero</title><g transform="translate(43 11.5)"><defs><filter id="filtermask" filterUnits="userSpaceOnUse" x="-243.7" y="369.6" width="156.6" height="33.1"><feColorMatrix values="1 0 0 0 0 0 1 0 0 0 0 0 1 0 0 0 0 0 1 0"/></filter></defs><mask maskUnits="userSpaceOnUse" x="-243.7" y="369.6" width="156.6" height="33.1" id="b"><g class="st0"><path id="a" fill="#fff" d="M-165.4 402.6h78.3v-33.1h-156.6v33.1h78.3z"/></g></mask><path class="st2" d="M-234.5 402.6h-1.6l2-3.4-2.9-5h1.6l2.1 3.6 2-3.6h1.5l-4.7 8.4zm-5.8-7.3c-.8 0-1.5.5-1.8 1.2-.1.2-.1.5-.1.8 0 .3 0 .6.1.8.2.5.5.9 1 1.1.2.1.5.2.8.2.3 0 .6-.1.8-.2.5-.2.8-.6 1-1.1.1-.3.1-.5.1-.8 0-.3 0-.5-.1-.8-.2-.5-.5-.9-1-1.1-.3 0-.6-.1-.8-.1zm.1-1.3c.9 0 1.7.3 2.3.9.3.3.5.6.7 1.1.2.4.2.9.2 1.3 0 .5-.1.9-.2 1.3-.3.8-.9 1.4-1.7 1.7-.4.2-.8.3-1.3.2-.5 0-.9-.1-1.2-.3-.3-.2-.6-.4-.8-.7v.8h-1.4v-8.9h1.4v3.3c.2-.3.5-.5.8-.7.4.1.8 0 1.2 0zm27.1 3.4c0-1.1.7-2 2-2 1.2 0 1.9.9 1.9 2 0 1.2-.8 2-1.9 2-1.3 0-2-.9-2-2zm5.2 0v-3.2h-1.4v.8c-.4-.6-1.1-.9-2-.9-1.8 0-3.2 1.4-3.2 3.3s1.4 3.3 3.2 3.3c.9 0 1.6-.4 2-.9v.8h1.4v-3.2zm47.3 0c0-1.1.7-2 2-2 1.2 0 1.9.9 1.9 2 0 1.2-.8 2-1.9 2-1.3 0-2-.9-2-2zm5.2 0v-5.7h-1.4v3.3c-.4-.6-1.1-.9-2-.9-1.8 0-3.2 1.4-3.2 3.3s1.4 3.3 3.2 3.3c.9 0 1.6-.4 2-.9v.8h1.4v-3.2zm-35.1-2.1c.9 0 1.5.6 1.6 1.5h-3.3c.1-.9.7-1.5 1.7-1.5zm0-1.3c-1.9 0-3.2 1.4-3.2 3.3 0 2 1.4 3.3 3.3 3.3 1 0 1.9-.2 2.6-.9l-.7-1c-.5.4-1.2.7-1.9.7-.9 0-1.7-.4-1.9-1.6h4.8v-.5c0-1.9-1.2-3.3-3-3.3zm16.9 3.4c0-1.1.7-2 2-2 1.2 0 1.9.9 1.9 2 0 1.2-.8 2-1.9 2-1.3 0-2-.9-2-2zm5.2 0v-3.2h-1.4v.8c-.4-.6-1.1-.9-2-.9-1.8 0-3.2 1.4-3.2 3.3s1.4 3.3 3.2 3.3c.9 0 1.6-.4 2-.9v.8h1.4v-3.2zm-13.1 0c0 1.9 1.4 3.3 3.4 3.3 1 0 1.6-.2 2.3-.8l-.7-1.1c-.5.4-1.1.6-1.7.6-1.1 0-1.9-.8-1.9-2s.8-2 1.9-2c.6 0 1.2.2 1.7.6l.7-1.1c-.7-.5-1.3-.8-2.3-.8-2-.1-3.4 1.3-3.4 3.3zm18.1-3.4c-.8 0-1.3.4-1.7.9v-.8h-1.4v6.4h1.4V397c0-1 .5-1.6 1.4-1.6.3 0 .6 0 .9.2l.4-1.3c-.4-.2-.7-.3-1-.3zm-37.6.7c-.7-.4-1.6-.7-2.6-.7-1.6 0-2.7.8-2.7 2 0 1 .8 1.7 2.2 1.9l.7.1c.8.1 1.1.3 1.1.7 0 .5-.5.8-1.5.8s-1.7-.3-2.1-.7l-.7 1.1c.8.6 1.7.8 2.8.8 1.9 0 2.9-.9 2.9-2.1 0-1.1-.8-1.7-2.2-1.9l-.7-.1c-.6-.1-1.1-.2-1.1-.6 0-.5.5-.7 1.2-.7.8 0 1.6.3 2 .5.1 0 .7-1.1.7-1.1zm18.1-.7c-.8 0-1.3.4-1.7.9v-.8h-1.4v6.4h1.4V397c0-1 .5-1.6 1.4-1.6.3 0 .6 0 .9.2l.4-1.3c-.3-.2-.7-.3-1-.3zm-12 .2h-2.3v-1.9h-1.4v1.9h-1.3v1.3h1.3v2.9c0 1.5.6 2.4 2.2 2.4.6 0 1.3-.2 1.8-.5l-.4-1.2c-.4.2-.9.4-1.2.4-.7 0-.9-.4-.9-1.1v-2.9h2.3v-1.3h-.1zm-20.9 6.3v-4c0-1.5-1-2.5-2.5-2.5-.8 0-1.7.2-2.3 1.1-.4-.7-1.1-1.1-2.1-1.1-.7 0-1.4.2-1.9.9v-.8h-1.4v6.4h1.4V397c0-1.1.6-1.7 1.6-1.7.9 0 1.4.6 1.4 1.7v3.5h1.4V397c0-1.1.6-1.7 1.6-1.7s1.4.6 1.4 1.7v3.5h1.4zm128.3-25.7c-1.4-.9-3.4-1.4-5.6-1.4-3.5 0-5.7 1.6-5.7 4.3 0 2.2 1.7 3.6 4.7 4l1.4.2c1.6.2 2.4.7 2.4 1.4 0 1-1.1 1.6-3.1 1.6-2.1 0-3.6-.7-4.6-1.4l-1.4 2.3c1.6 1.2 3.7 1.8 5.9 1.8 4 0 6.3-1.8 6.3-4.4 0-2.4-1.8-3.6-4.8-4.1l-1.4-.2c-1.3-.2-2.3-.4-2.3-1.3 0-1 1-1.6 2.6-1.6 1.8 0 3.4.7 4.3 1.2l1.3-2.4zm-14.3 0c-1.4-.9-3.4-1.4-5.6-1.4-3.5 0-5.7 1.6-5.7 4.3 0 2.2 1.7 3.6 4.7 4l1.4.2c1.6.2 2.4.7 2.4 1.4 0 1-1.1 1.6-3.1 1.6-2.1 0-3.6-.7-4.6-1.4l-1.4 2.3c1.6 1.2 3.7 1.8 5.9 1.8 4 0 6.3-1.8 6.3-4.4 0-2.4-1.8-3.6-4.8-4.1l-1.4-.2c-1.3-.2-2.3-.4-2.3-1.3 0-1 1-1.6 2.6-1.6 1.8 0 3.4.7 4.3 1.2l1.3-2.4zm-34.2 5.6c0 2.4-1.6 4.3-4.2 4.3-2.5 0-4.1-1.9-4.1-4.3 0-2.5 1.7-4.3 4.1-4.3 2.6 0 4.2 1.9 4.2 4.3zm-11.2 0v11.7h3v-6.6c.9 1.2 2.4 2 4.3 2 3.9 0 6.9-3 6.9-7.1s-3-7.1-6.9-7.1c-2 0-3.4.8-4.3 2v-1.6h-3v6.7zm19.5.1c0-2.4 1.6-4.3 4.2-4.3 2.5 0 4.1 1.9 4.1 4.3s-1.7 4.3-4.1 4.3c-2.6 0-4.2-2-4.2-4.3zm11.1 0v-6.8h-3v1.6c-.9-1.2-2.4-2-4.3-2-3.9 0-6.9 3-6.9 7.1s3 7.1 6.9 7.1c2 0 3.4-.8 4.3-2v1.6h3v-6.6zm-99.6 0c0-2.4 1.6-4.3 4.2-4.3 2.5 0 4.1 1.9 4.1 4.3s-1.7 4.3-4.1 4.3c-2.6 0-4.2-2-4.2-4.3zm11.1 0v-6.8h-3v1.6c-.9-1.2-2.4-2-4.3-2-3.9 0-6.9 3-6.9 7.1s3 7.1 6.9 7.1c2 0 3.4-.8 4.3-2v1.6h3v-6.6zm37.1-4.5c1.9 0 3.2 1.2 3.5 3.3h-7.1c.2-2 1.4-3.3 3.6-3.3zm0-2.7c-4 0-6.8 2.9-6.8 7.1 0 4.3 2.9 7.1 7 7.1 2.1 0 4-.5 5.6-1.9l-1.5-2.2c-1.1.9-2.5 1.4-4 1.4-1.9 0-3.7-.9-4.1-3.3h10.2c0-.4.1-.7.1-1.1 0-4.2-2.6-7.1-6.5-7.1zm-22.3 1.5c-1.4-.9-3.4-1.4-5.6-1.4-3.5 0-5.7 1.6-5.7 4.3 0 2.2 1.7 3.6 4.7 4l1.4.2c1.6.2 2.4.7 2.4 1.4 0 1-1.1 1.6-3.1 1.6-2.1 0-3.6-.7-4.6-1.4l-1.4 2.3c1.6 1.2 3.7 1.8 5.9 1.8 4 0 6.3-1.8 6.3-4.4 0-2.4-1.8-3.6-4.8-4.1l-1.4-.2c-1.3-.2-2.3-.4-2.3-1.3 0-1 1-1.6 2.6-1.6 1.8 0 3.5.7 4.3 1.2l1.3-2.4zm38.5-1.5c-1.7 0-2.8.8-3.6 2v-1.6h-3v13.6h3v-7.6c0-2.2 1-3.5 2.9-3.5.6 0 1.2.1 1.9.3l.9-2.8c-.6-.2-1.4-.4-2.1-.4zm-25.5.4h-4.9v-4.1h-3v4.1h-2.8v2.7h2.8v6.2c0 3.1 1.2 5 4.8 5 1.3 0 2.8-.4 3.7-1l-.9-2.5c-.9.5-1.9.8-2.6.8-1.5 0-2-.9-2-2.3v-6.1h4.9v-2.8zm-44.6 13.5v-8.5c0-3.2-2.1-5.4-5.4-5.4-1.8 0-3.6.5-4.8 2.4-.9-1.5-2.4-2.4-4.5-2.4-1.5 0-2.9.4-4 2v-1.7h-3v13.6h3v-7.5c0-2.4 1.3-3.6 3.4-3.6 2 0 3 1.3 3 3.6v7.5h3v-7.5c0-2.4 1.4-3.6 3.4-3.6s3 1.3 3 3.6v7.5h2.9z"/></g><path fill="#ff5f00" d="M-255.9 413.2h15.7v-32.4h-15.7v32.4z"/><path fill="#ec001b" d="M-255.9 397c0-6.6 3.1-12.4 7.9-16.2-3.6-2.9-8.1-4.4-12.7-4.4-11.4 0-20.6 9.2-20.6 20.6s9.2 20.6 20.6 20.6c4.8 0 9.2-1.6 12.7-4.4-5-3.9-7.9-9.9-7.9-16.2"/><path fill="#f89e1b" d="M-214.7 397c0 11.4-9.2 20.6-20.6 20.6-4.8 0-9.2-1.6-12.7-4.4 5-3.9 7.9-9.9 7.9-16.2 0-6.6-3.1-12.4-7.9-16.2 3.6-2.9 8.1-4.4 12.7-4.4 11.4 0 20.6 9.2 20.6 20.6z"/></svg>
